<?xml version="1.0" encoding="utf-8"?>
<!-- Generator: Adobe Illustrator 27.0.1, SVG Export Plug-In . SVG Version: 6.00 Build 0)  -->
<svg version="1.1" id="图层_1" xmlns="http://www.w3.org/2000/svg" xmlns:xlink="http://www.w3.org/1999/xlink" x="0px" y="0px"
	 viewBox="0 0 897.07 310.97" style="enable-background:new 0 0 897.07 310.97;" xml:space="preserve">
<style type="text/css">
	.st0{fill:#BD1E21;}
	.st1{fill:#1B1B1B;}
</style>
<g>
	<g>
		<g>
			<g>
				<path class="st0" d="M399.51,0l-71.93,135.64h29.62l15.49-30.21h55.85l8.67,30.21h30.38L426.31,0L399.51,0L399.51,0z
					 M385.52,79.26l22.99-43.67l12.61,43.67L385.52,79.26L385.52,79.26z"/>
				<polygon class="st0" points="302.84,0 261.5,57.6 233.4,0 202.08,0 186.86,135.64 215.35,135.64 225.22,47.66 254.56,106.34 
					299.62,50.53 290.07,135.64 318.94,135.64 334.15,0 				"/>
				<path class="st0" d="M111.93,28.85h66.09L182.1,0h-70.95C85.26,0,68.21,11.82,65.19,34.6c-3.91,29.53,15.2,42.18,30.62,44.61
					l39.23,5.82c12.96,1.7,10.12,21.74-5.73,21.74H65.19l-8.37,28.86h69.92c36.19,0,50.34-20.06,50.34-38.58
					c0-22.83-13.54-34.12-33.07-39.02l-38.9-7.71C93.55,48.56,94.9,28.85,111.93,28.85"/>
				<polygon class="st0" points="73.56,77.91 45.25,77.91 36.88,106.77 65.2,106.77 				"/>
				<polygon class="st0" points="36.88,106.77 8.56,106.77 0.2,135.64 28.52,135.64 20.16,164.5 48.48,164.5 56.84,135.64 
					28.52,135.64 				"/>
				<polygon class="st0" points="638.15,135.64 667.21,135.64 679.14,27.51 719.53,27.51 722.62,0 613.17,0 610.08,27.51 
					650.28,27.51 				"/>
				<path class="st0" d="M839.82,98.71l0.04-0.39c1.81-16.29-4.32-26.12-20.49-32.85l-1.65-0.68l1.58-0.86
					c12.19-6.67,18.8-16.15,20.22-28.97l0.04-0.39c1.01-9.11-1.04-16.51-6.27-22.66c-6.63-7.79-17.91-11.9-32.64-11.9h-60.66
					l-15.03,135.64h61.99C817.94,135.64,837.21,122.18,839.82,98.71 M809.32,30.43c1.94,2.48,2.71,5.65,2.3,9.44l-0.04,0.4
					c-1.11,9.98-9.16,15.26-23.3,15.26h-27.64l3.66-30.72h29.09C801.02,24.79,806.38,26.69,809.32,30.43 M758.04,78.94h34.25
					c8.94,0,15.09,2.04,18.25,6.07c2,2.54,2.79,5.84,2.35,9.79l-0.04,0.4c-1.13,10.24-9.07,15.65-22.96,15.65h-35.38L758.04,78.94z"
					/>
				<path class="st0" d="M549.35,0h-59.72L474.2,135.64h27.54l5.1-45.07h23.92l23.2,45.07h32.2L559.77,85.9l0.9-0.33
					c18.75-6.84,30.33-21.53,32.6-41.36l0.04-0.39c1.41-12.42-1.21-22.9-7.58-30.32C578.14,4.67,565.56,0,549.35,0 M565.19,45.58
					l-0.04,0.38c-1.4,12.29-11.2,20.75-25.34,20.75h-30.27l4.76-41.45h29.53c8.4,0,14.71,2.34,18.22,6.77
					C564.77,35.46,565.82,40.02,565.19,45.58"/>
				<polygon class="st0" points="868.02,0 852.8,135.64 881.86,135.64 897.07,0 				"/>
			</g>
		</g>
	</g>
</g>
</svg>
